<?xml version="1.0" standalone="no"?>
<!DOCTYPE svg PUBLIC "-//W3C//DTD SVG 20010904//EN"
 "http://www.w3.org/TR/2001/REC-SVG-20010904/DTD/svg10.dtd">
<svg version="1.0" xmlns="http://www.w3.org/2000/svg"
 width="512.000000pt" height="512.000000pt" viewBox="0 0 512.000000 512.000000"
 preserveAspectRatio="xMidYMid meet">

<g transform="translate(0.000000,512.000000) scale(0.100000,-0.100000)"
fill="#000000" stroke="none">
<path d="M912 4944 c-359 -65 -601 -289 -692 -641 -22 -84 -39 -284 -32 -365
4 -47 5 -48 37 -48 18 0 52 3 77 6 l45 6 6 142 c6 167 28 263 88 386 82 166
237 286 444 342 69 18 104 21 260 20 99 -1 198 -3 220 -4 l40 -3 13 74 c7 40
12 75 10 76 -2 2 -38 8 -81 14 -105 15 -344 12 -435 -5z"/>
<path d="M1870 4916 c-108 -24 -206 -48 -218 -55 -45 -24 -45 -49 -1 -260 23
-108 45 -199 49 -204 3 -4 39 0 78 9 84 19 82 14 52 144 -30 130 -36 125 92
73 479 -192 959 -511 1436 -953 l144 -133 56 57 57 58 -105 100 c-213 203
-467 412 -667 549 -56 38 -105 73 -108 78 -3 5 35 31 84 57 l89 47 -36 73 -36
74 -106 -56 c-58 -31 -107 -58 -110 -61 -2 -2 6 -22 18 -44 12 -21 21 -39 18
-39 -2 0 -57 32 -122 71 -117 69 -406 218 -494 254 l-45 18 68 15 c76 17 76
18 54 117 -9 38 -17 50 -32 52 -11 1 -108 -18 -215 -41z"/>
<path d="M3750 4923 c-74 -8 -210 -35 -320 -65 -106 -28 -356 -115 -407 -142
l-22 -11 30 -70 c17 -38 32 -71 34 -73 2 -3 39 10 82 28 248 104 513 167 734
177 439 20 717 -157 821 -522 20 -69 23 -103 23 -255 0 -96 -2 -193 -5 -215
l-5 -40 78 -14 c43 -7 80 -12 82 -10 2 2 9 66 15 142 50 574 -218 966 -725
1062 -74 14 -316 19 -415 8z"/>
<path d="M2195 4239 c-152 -110 -145 -98 -102 -157 60 -81 51 -82 180 10 64
46 116 88 116 93 1 6 -18 38 -42 71 l-43 61 -109 -78z"/>
<path d="M1697 3837 l-114 -104 49 -57 c27 -31 54 -56 60 -56 13 0 216 182
217 195 0 6 -21 36 -49 68 l-49 58 -114 -104z"/>
<path d="M310 3603 c-36 -8 -67 -17 -69 -19 -8 -8 66 -254 77 -254 3 0 37 10
75 22 79 26 77 13 31 171 -15 53 -33 97 -39 96 -5 0 -39 -8 -75 -16z"/>
<path d="M1353 3503 c-446 -479 -774 -961 -982 -1443 l-24 -55 -15 69 -15 68
-41 -6 c-72 -12 -116 -26 -116 -39 0 -7 20 -106 45 -222 45 -207 57 -238 97
-251 15 -4 413 71 426 81 1 1 -5 37 -14 79 -13 56 -21 76 -33 76 -9 -1 -64
-11 -123 -24 -60 -13 -108 -23 -108 -22 0 1 22 56 49 122 206 503 512 959 985
1468 l99 107 -53 54 c-30 30 -57 55 -61 55 -3 0 -56 -53 -116 -117z"/>
<path d="M4540 3568 c-96 -28 -177 -52 -180 -54 -5 -6 29 -137 39 -147 5 -5
56 5 114 22 58 17 110 31 116 31 6 0 -7 -50 -29 -112 -175 -490 -521 -1031
-970 -1516 -52 -57 -95 -109 -95 -116 0 -8 24 -35 54 -62 l54 -49 85 90 c182
194 410 478 551 688 169 250 346 578 431 797 18 47 36 89 41 93 4 5 14 -17 23
-50 10 -32 19 -63 21 -69 4 -14 155 26 155 41 0 31 -122 431 -136 446 -26 29
-81 23 -274 -33z"/>
<path d="M3667 3484 c-69 -64 -73 -50 56 -188 94 -101 80 -99 167 -24 l43 38
-93 102 c-52 57 -98 108 -104 115 -8 9 -26 -2 -69 -43z"/>
<path d="M2345 3509 c-178 -24 -343 -83 -421 -151 -77 -68 -74 -31 -74 -787 0
-484 3 -685 12 -712 15 -52 92 -123 171 -159 133 -60 305 -90 521 -90 302 0
549 65 653 172 65 68 63 38 63 785 0 634 -2 681 -19 718 -42 93 -179 167 -391
210 -91 19 -415 28 -515 14z m365 -159 c52 -6 133 -20 180 -31 88 -22 198 -73
207 -96 13 -34 -76 -83 -216 -120 -181 -46 -499 -43 -682 8 -79 22 -158 59
-179 84 -41 50 155 132 370 154 120 12 210 12 320 1z m-605 -380 c255 -89 688
-85 935 9 30 12 58 21 63 21 4 0 7 -49 7 -110 0 -127 -5 -136 -93 -175 -110
-48 -211 -67 -397 -72 -237 -7 -391 14 -516 71 -90 41 -94 49 -94 177 0 102 2
111 18 106 9 -3 44 -15 77 -27z m11 -434 c124 -43 252 -60 444 -59 193 0 318
17 443 59 39 14 80 28 90 31 15 5 17 -4 17 -106 0 -97 -3 -114 -19 -130 -115
-115 -571 -162 -861 -90 -97 24 -194 70 -210 98 -5 11 -10 68 -10 127 0 97 2
106 18 101 9 -4 49 -17 88 -31z m-20 -425 c135 -49 255 -66 464 -66 230 1 360
23 533 90 16 7 17 -2 17 -108 l0 -116 -33 -25 c-204 -156 -872 -152 -1044 7
-21 19 -23 29 -23 134 0 62 1 113 3 113 2 0 39 -13 83 -29z"/>
<path d="M505 3069 c-33 -16 -64 -30 -69 -32 -12 -4 123 -277 136 -277 5 0 38
16 74 36 l63 35 -67 135 c-37 74 -69 134 -72 133 -3 0 -32 -14 -65 -30z"/>
<path d="M4057 3014 c-35 -28 -55 -50 -50 -57 19 -32 157 -218 165 -223 15 -9
139 76 130 90 -36 58 -169 235 -177 235 -5 0 -36 -20 -68 -45z"/>
<path d="M4445 2463 c-33 -19 -64 -39 -69 -43 -6 -6 75 -177 100 -208 3 -4
144 67 144 72 0 4 -108 207 -112 212 -2 1 -30 -14 -63 -33z"/>
<path d="M892 2387 c-34 -23 -62 -45 -62 -50 0 -7 106 -156 157 -220 l22 -28
61 47 c33 26 59 53 56 60 -6 15 -156 223 -166 229 -4 2 -35 -15 -68 -38z"/>
<path d="M4630 2089 c-36 -15 -69 -30 -73 -31 -5 -2 7 -42 26 -88 78 -190 144
-428 167 -602 24 -188 5 -407 -49 -549 -56 -147 -172 -273 -315 -343 -148 -72
-197 -81 -447 -81 l-217 0 -10 -75 c-6 -41 -10 -76 -8 -77 1 -1 63 -7 137 -13
802 -64 1217 460 1043 1318 -26 132 -117 420 -162 513 l-27 57 -65 -29z"/>
<path d="M1268 1903 c-29 -25 -54 -49 -56 -53 -1 -4 43 -58 99 -119 l102 -112
58 57 58 58 -37 40 c-20 23 -65 72 -98 109 -34 37 -64 67 -67 67 -4 0 -30 -21
-59 -47z"/>
<path d="M1610 1534 l-55 -55 85 -80 c474 -445 1013 -801 1504 -995 l100 -39
-67 -20 c-36 -11 -68 -23 -72 -26 -9 -10 28 -141 41 -146 15 -6 403 105 432
124 48 30 47 51 -14 264 -31 110 -62 199 -67 199 -17 0 -131 -32 -139 -39 -5
-4 7 -60 26 -124 18 -64 33 -117 32 -117 -10 0 -163 56 -252 93 -451 185 -931
503 -1374 911 -63 58 -117 106 -120 106 -3 0 -30 -25 -60 -56z"/>
<path d="M3278 1442 c-58 -53 -106 -101 -107 -107 0 -5 22 -34 48 -64 58 -65
47 -69 189 66 l94 88 -59 57 -58 56 -107 -96z"/>
<path d="M176 1408 c-4 -18 -9 -114 -12 -213 -7 -194 5 -292 48 -419 97 -283
312 -477 608 -550 88 -21 293 -39 358 -31 58 7 58 7 46 111 l-7 52 -146 5
c-104 3 -169 11 -225 26 -259 69 -430 240 -496 497 -28 104 -37 292 -21 419
14 111 15 109 -58 120 -25 3 -56 9 -67 11 -18 5 -23 0 -28 -28z"/>
<path d="M2816 1060 c-60 -44 -113 -83 -118 -88 -10 -10 69 -132 85 -132 21 0
246 173 239 184 -19 30 -87 116 -92 116 -3 0 -54 -36 -114 -80z"/>
<path d="M2160 655 c-69 -36 -129 -66 -133 -67 -10 -4 53 -148 65 -148 15 0
268 130 268 138 0 8 -70 143 -73 141 -1 0 -58 -29 -127 -64z"/>
<path d="M1675 454 c-22 -8 -69 -22 -105 -31 -36 -9 -67 -17 -69 -19 -8 -6 34
-154 43 -154 29 0 238 64 242 74 7 19 -42 141 -57 143 -8 1 -32 -5 -54 -13z"/>
</g>
</svg>
