<?xml version="1.0" standalone="no"?>
<!DOCTYPE svg PUBLIC "-//W3C//DTD SVG 20010904//EN"
 "http://www.w3.org/TR/2001/REC-SVG-20010904/DTD/svg10.dtd">
<svg version="1.0" xmlns="http://www.w3.org/2000/svg"
 width="512.000000pt" height="512.000000pt" viewBox="0 0 512.000000 512.000000"
 preserveAspectRatio="xMidYMid meet">

<g transform="translate(0.000000,512.000000) scale(0.100000,-0.100000)"
fill="#000000" stroke="none">
<path d="M1250 5040 c-67 -10 -90 -34 -90 -94 0 -23 -7 -66 -15 -94 -22 -72
-49 -72 -122 3 -68 69 -91 71 -176 13 -114 -78 -257 -239 -257 -290 0 -11 20
-40 44 -66 50 -54 70 -88 62 -107 -6 -17 -68 -35 -122 -35 -50 0 -89 -28 -97
-68 -6 -27 -10 -29 -65 -34 -123 -12 -238 -95 -295 -216 l-32 -67 0 -1300 0
-1300 26 -55 c41 -85 99 -144 187 -187 l76 -38 788 -3 788 -3 0 -174 0 -174
-163 -3 c-158 -3 -165 -4 -204 -30 -73 -48 -83 -84 -83 -302 0 -164 2 -191 19
-224 22 -42 43 -63 88 -86 29 -14 124 -16 953 -16 829 0 924 2 953 16 46 23
66 44 89 87 17 35 19 56 16 236 l-3 198 -28 42 c-46 69 -84 81 -264 81 l-153
0 0 175 0 174 788 3 788 3 76 38 c88 43 146 102 187 187 l26 55 0 1300 0 1300
-32 67 c-38 81 -102 146 -181 185 l-57 28 -1228 3 -1228 2 -11 30 c-13 39 -35
50 -96 50 -61 0 -112 17 -112 37 0 24 38 80 69 103 16 11 34 33 41 50 11 28
10 35 -21 85 -44 72 -136 174 -209 230 -79 61 -105 60 -173 -3 -65 -60 -80
-66 -104 -40 -14 16 -18 37 -19 100 -1 58 -5 84 -17 95 -35 36 -262 54 -407
33z m251 -150 c24 0 27 -4 31 -49 10 -103 77 -187 157 -198 59 -8 104 4 162
43 l52 35 49 -48 c27 -26 58 -60 69 -75 l20 -27 -35 -46 c-55 -71 -68 -137
-41 -203 30 -70 95 -117 180 -129 l45 -6 0 -66 c0 -36 -3 -82 -6 -103 -6 -34
-9 -36 -52 -43 -141 -21 -217 -116 -192 -240 9 -45 20 -66 62 -128 12 -17 5
-26 -60 -87 l-73 -69 -47 33 c-76 54 -146 69 -209 45 -61 -23 -118 -101 -131
-182 l-8 -42 -104 0 -105 0 -6 51 c-7 56 -48 140 -84 174 -48 45 -145 39 -226
-16 l-52 -35 -49 48 c-27 26 -58 60 -69 75 l-20 27 35 46 c57 75 69 141 37
212 -25 55 -88 100 -161 115 -58 11 -58 12 -63 52 -3 23 -3 69 0 102 l6 62 49
6 c190 25 257 183 142 333 l-25 33 20 29 c11 15 45 47 76 71 l56 43 22 -20
c149 -131 330 -65 362 134 8 48 22 54 110 47 28 -2 62 -4 76 -4z m-1040 -837
c1 -153 25 -203 96 -203 47 0 120 -19 134 -36 14 -17 -13 -64 -70 -117 -29
-27 -41 -47 -41 -66 0 -77 250 -341 323 -341 18 0 47 18 88 55 34 30 67 55 75
55 28 0 44 -43 44 -121 0 -102 12 -112 151 -129 155 -19 300 4 334 53 8 12 15
44 16 72 0 78 18 119 52 123 23 3 39 -7 83 -52 43 -43 62 -56 85 -56 55 0 199
113 285 223 72 92 72 112 -1 188 -60 62 -66 86 -34 115 16 15 37 19 101 19 70
0 82 3 98 22 18 23 40 141 40 218 l0 45 1188 0 c965 -1 1194 -3 1225 -14 57
-21 103 -61 128 -113 l24 -48 3 -1107 2 -1108 -2330 0 -2330 0 2 1108 3 1107
24 48 c25 52 71 92 128 113 70 24 73 22 74 -53z m4426 -2557 c-8 -112 -56
-185 -144 -223 -48 -20 -4318 -20 -4366 0 -88 38 -136 111 -144 223 l-6 74
2333 0 2333 0 -6 -74z m-1869 -568 l-3 -173 -455 0 -455 0 -3 173 -2 172 460
0 460 0 -2 -172z m436 -344 c13 -13 16 -43 16 -168 0 -105 -4 -156 -12 -164
-9 -9 -223 -12 -900 -12 -867 0 -888 0 -898 19 -5 11 -10 83 -10 162 0 118 3
145 17 161 15 17 56 18 894 18 784 0 879 -2 893 -16z"/>
<path d="M1295 4600 c-115 -25 -236 -95 -304 -176 -44 -54 -99 -168 -111 -233
-22 -117 -6 -230 47 -341 35 -72 151 -188 223 -223 211 -101 445 -64 606 97
184 184 202 467 44 677 -60 81 -159 152 -251 180 -73 23 -195 32 -254 19z
m247 -182 c72 -33 142 -103 176 -176 24 -50 27 -70 27 -157 0 -95 -2 -103 -34
-163 -123 -227 -417 -265 -590 -77 -63 70 -93 145 -94 240 -1 156 81 279 230
341 80 34 201 30 285 -8z"/>
<path d="M2696 3850 c-66 -26 -122 -82 -146 -147 -19 -52 -20 -79 -20 -801 0
-478 4 -760 10 -784 19 -68 70 -130 134 -163 l60 -30 880 0 881 0 52 24 c58
26 123 90 150 148 17 35 18 89 18 803 l0 765 -29 58 c-32 67 -95 119 -163 136
-28 7 -331 11 -910 11 -832 -1 -870 -2 -917 -20z m1775 -140 c19 -6 46 -22 60
-36 23 -24 24 -33 27 -175 l3 -149 -940 0 -941 0 0 119 c0 65 3 133 6 150 8
37 54 88 87 94 49 9 1663 7 1698 -3z m87 -1035 l-3 -525 -33 -32 -32 -33 -858
-2 c-668 -2 -862 0 -881 10 -13 6 -34 25 -45 40 -21 28 -21 39 -24 535 -1 278
0 512 2 519 4 11 177 13 941 13 l936 0 -3 -525z"/>
<path d="M2833 3598 c-12 -6 -27 -23 -34 -39 -15 -37 4 -87 38 -100 37 -14
876 -12 907 2 31 14 49 61 36 93 -21 57 -17 56 -490 55 -283 0 -443 -4 -457
-11z"/>
<path d="M3910 3598 c-32 -17 -47 -59 -34 -95 13 -38 48 -53 122 -53 54 0 67
4 87 25 30 29 33 73 6 106 -16 19 -30 24 -87 27 -44 2 -78 -2 -94 -10z"/>
<path d="M4236 3588 c-27 -25 -34 -49 -23 -89 9 -34 45 -49 116 -49 77 0 111
24 111 80 0 57 -34 80 -116 80 -51 0 -68 -4 -88 -22z"/>
<path d="M3658 3015 c-15 -8 -29 -23 -32 -32 -33 -109 -166 -621 -166 -639 0
-14 12 -36 26 -51 20 -20 31 -24 57 -19 18 4 40 15 51 25 19 19 175 599 176
654 0 32 -39 77 -67 77 -10 -1 -30 -7 -45 -15z"/>
<path d="M3320 2948 c-27 -10 -258 -230 -278 -265 -7 -13 -10 -33 -6 -47 3
-13 65 -83 138 -155 143 -141 159 -150 210 -110 19 15 26 29 26 56 0 32 -11
47 -95 132 l-94 96 99 95 c85 80 100 100 100 126 0 50 -54 89 -100 72z"/>
<path d="M3864 2945 c-33 -14 -44 -32 -44 -73 0 -20 23 -50 97 -124 l98 -98
-93 -93 c-79 -79 -93 -99 -94 -127 -1 -25 6 -39 26 -57 51 -43 68 -35 212 108
73 72 135 142 138 155 4 14 1 34 -6 47 -21 35 -250 255 -278 265 -18 7 -35 6
-56 -3z"/>
<path d="M668 2576 c-148 -53 -230 -168 -230 -322 0 -132 72 -243 197 -301
l60 -28 650 -3 c442 -2 671 1 716 8 177 30 289 173 277 354 -8 120 -82 227
-193 278 l-50 23 -695 2 c-555 2 -702 0 -732 -11z m1431 -169 c102 -67 116
-183 33 -271 -54 -57 -35 -56 -744 -56 -644 0 -652 0 -696 21 -81 40 -124 146
-88 221 9 19 30 47 45 62 59 56 50 56 757 53 l650 -2 43 -28z"/>
<path d="M855 2330 c-59 -18 -74 -82 -30 -125 l24 -25 376 0 c362 0 376 1 395
20 28 28 27 90 -1 116 -20 18 -43 19 -378 21 -196 1 -369 -2 -386 -7z"/>
<path d="M2405 1478 c-29 -16 -35 -28 -35 -69 0 -24 7 -42 21 -55 19 -17 38
-19 169 -19 131 0 150 2 169 19 14 13 21 31 21 55 0 71 -24 81 -192 81 -80 0
-141 -5 -153 -12z"/>
</g>
</svg>
